<svg id="svgContainer" xmlns="http://www.w3.org/2000/svg" preserveAspectRatio="xMinYMin meet" height="994" width="704.9645390070922"><rect x="0" y="0" width="704.9645390070922" height="994" fill="#FFFFFF"/><rect x="40.09998251533596" y="40.09998251533596" width="45.35451562339486" height="49.26534396527378" fill="#0A0A0A"/><rect x="99.6742375661149" y="40.09998251533596" width="45.35451562339486" height="49.26534396527378" fill="#0A0A0A"/><rect x="159.24849261689383" y="40.09998251533596" width="27.91047115285837" height="49.26534396527378" fill="#0A0A0A"/><rect x="201.37870319713625" y="40.09998251533596" width="132.57473797607727" height="49.26534396527378" fill="#0A0A0A"/><rect x="348.17318060059756" y="40.09998251533596" width="101.17545792911159" height="49.26534396527378" fill="#0A0A0A"/><rect x="40.09998251533596" y="99.04025204903104" width="69.77617788214593" height="49.26534396527378" fill="#0A0A0A"/><rect x="124.09589982486597" y="99.04025204903104" width="97.68664903500432" height="49.26534396527378" fill="#0A0A0A"/><rect x="236.00228828725437" y="99.04025204903104" width="48.84332451750216" height="49.26534396527378" fill="#0A0A0A"/><rect x="299.0653522321406" y="99.04025204903104" width="73.26498677625322" height="49.26534396527378" fill="#0A0A0A"/><rect x="386.5500784357779" y="99.04025204903104" width="62.798560093931336" height="49.26534396527378" fill="#0A0A0A"/><rect x="40.09998251533596" y="157.98052158272614" width="90.70903124678972" height="49.26534396527378" fill="#0A0A0A"/><rect x="145.02875318950976" y="157.98052158272614" width="31.399280046965668" height="49.26534396527378" fill="#0A0A0A"/><rect x="190.64777266385948" y="157.98052158272614" width="45.35451562339486" height="49.26534396527378" fill="#0A0A0A"/><rect x="250.2220277146384" y="157.98052158272614" width="76.75379567036052" height="49.26534396527378" fill="#0A0A0A"/><rect x="341.19556281238295" y="157.98052158272614" width="20.932853364643776" height="49.26534396527378" fill="#0A0A0A"/><rect x="376.34815560441086" y="157.98052158272614" width="87.22022235268241" height="49.26534396527378" fill="#0A0A0A"/><rect x="40.09998251533596" y="216.92079111642124" width="73.26498677625322" height="49.26534396527378" fill="#0A0A0A"/><rect x="127.58470871897325" y="216.92079111642124" width="48.84332451750216" height="49.26534396527378" fill="#0A0A0A"/><rect x="190.64777266385948" y="216.92079111642124" width="87.22022235268241" height="49.26534396527378" fill="#0A0A0A"/><rect x="292.08773444392597" y="216.92079111642124" width="59.30975119982404" height="49.26534396527378" fill="#0A0A0A"/><rect x="365.61722507113404" y="216.92079111642124" width="80.24260456446783" height="49.26534396527378" fill="#0A0A0A"/><rect x="40.09998251533596" y="294.8142402509155" width="48.84332451750216" height="49.26534396527378" fill="#0A0A0A"/><rect x="103.16304646022218" y="294.8142402509155" width="108.15307571732619" height="49.26534396527378" fill="#0A0A0A"/><rect x="225.53586160493245" y="294.8142402509155" width="104.6642668232189" height="49.26534396527378" fill="#0A0A0A"/><rect x="344.4198678555354" y="294.8142402509155" width="87.22022235268241" height="49.26534396527378" fill="#0A0A0A"/><rect x="40.09998251533596" y="353.75450978461055" width="80.24260456446783" height="49.26534396527378" fill="#0A0A0A"/><rect x="134.56232650718786" y="353.75450978461055" width="52.33213341160945" height="49.26534396527378" fill="#0A0A0A"/><rect x="201.11419934618135" y="353.75450978461055" width="101.17545792911159" height="49.26534396527378" fill="#0A0A0A"/><rect x="316.509396702677" y="353.75450978461055" width="111.64188461143348" height="49.26534396527378" fill="#0A0A0A"/><rect x="40.09998251533596" y="412.6947793183057" width="76.75379567036052" height="49.26534396527378" fill="#0A0A0A"/><rect x="131.07351761308055" y="412.6947793183057" width="80.24260456446783" height="49.26534396527378" fill="#0A0A0A"/><rect x="225.53586160493245" y="412.6947793183057" width="160.48520912893565" height="49.26534396527378" fill="#0A0A0A"/><rect x="400.24081016125217" y="412.6947793183057" width="27.91047115285837" height="49.26534396527378" fill="#0A0A0A"/><rect x="40.09998251533596" y="471.63504885200075" width="31.399280046965668" height="49.26534396527378" fill="#0A0A0A"/><rect x="85.7190019896857" y="471.63504885200075" width="38.37689783518026" height="49.26534396527378" fill="#0A0A0A"/><rect x="138.31563925225" y="471.63504885200075" width="45.35451562339486" height="49.26534396527378" fill="#0A0A0A"/><rect x="197.8898943030289" y="471.63504885200075" width="139.55235576429186" height="49.26534396527378" fill="#0A0A0A"/><rect x="351.6619894947048" y="471.63504885200075" width="59.30975119982404" height="49.26534396527378" fill="#0A0A0A"/><rect x="425.19148012191295" y="471.63504885200075" width="31.399280046965668" height="49.26534396527378" fill="#0A0A0A"/><rect x="40.09998251533596" y="549.528497986495" width="24.42166225875108" height="49.26534396527378" fill="#0A0A0A"/><rect x="78.7413842014711" y="549.528497986495" width="87.22022235268241" height="49.26534396527378" fill="#0A0A0A"/><rect x="180.18134598153756" y="549.528497986495" width="66.28736898803864" height="49.26534396527378" fill="#0A0A0A"/><rect x="260.6884543969603" y="549.528497986495" width="80.24260456446783" height="49.26534396527378" fill="#0A0A0A"/><rect x="355.1507983888122" y="549.528497986495" width="41.86570672928755" height="49.26534396527378" fill="#0A0A0A"/><rect x="411.2362445454838" y="549.528497986495" width="48.84332451750216" height="49.26534396527378" fill="#0A0A0A"/><rect x="40.09998251533596" y="608.4687675201901" width="41.86570672928755" height="49.26534396527378" fill="#0A0A0A"/><rect x="96.18542867200759" y="608.4687675201901" width="17.444044470536483" height="49.26534396527378" fill="#0A0A0A"/><rect x="127.84921256992813" y="608.4687675201901" width="122.10831129375538" height="49.26534396527378" fill="#0A0A0A"/><rect x="264.17726329106756" y="608.4687675201901" width="59.30975119982404" height="49.26534396527378" fill="#0A0A0A"/><rect x="337.7067539182757" y="608.4687675201901" width="66.28736898803864" height="49.26534396527378" fill="#0A0A0A"/><rect x="418.21386233369833" y="608.4687675201901" width="41.86570672928755" height="49.26534396527378" fill="#0A0A0A"/><rect x="40.09998251533596" y="667.4090370538852" width="87.22022235268241" height="49.26534396527378" fill="#0A0A0A"/><rect x="141.53994429540245" y="667.4090370538852" width="38.37689783518026" height="49.26534396527378" fill="#0A0A0A"/><rect x="194.1365815579668" y="667.4090370538852" width="41.86570672928755" height="49.26534396527378" fill="#0A0A0A"/><rect x="250.2220277146384" y="667.4090370538852" width="24.42166225875108" height="49.26534396527378" fill="#0A0A0A"/><rect x="288.8634294007735" y="667.4090370538852" width="41.86570672928755" height="49.26534396527378" fill="#0A0A0A"/><rect x="344.94887555744515" y="667.4090370538852" width="31.399280046965668" height="49.26534396527378" fill="#0A0A0A"/><rect x="390.5678950317948" y="667.4090370538852" width="83.7314134585751" height="49.26534396527378" fill="#0A0A0A"/><rect x="40.09998251533596" y="745.3024861883795" width="45.35451562339486" height="49.26534396527378" fill="#0A0A0A"/><rect x="99.6742375661149" y="745.3024861883795" width="80.24260456446783" height="49.26534396527378" fill="#0A0A0A"/><rect x="194.1365815579668" y="745.3024861883795" width="115.13069350554079" height="49.26534396527378" fill="#0A0A0A"/><rect x="323.4870144908916" y="745.3024861883795" width="108.15307571732619" height="49.26534396527378" fill="#0A0A0A"/><rect x="40.09998251533596" y="804.2427557220745" width="17.444044470536483" height="49.26534396527378" fill="#0A0A0A"/><rect x="71.7637664132565" y="804.2427557220745" width="94.197840140897" height="49.26534396527378" fill="#0A0A0A"/><rect x="180.18134598153756" y="804.2427557220745" width="24.42166225875108" height="49.26534396527378" fill="#0A0A0A"/><rect x="218.8227476676727" y="804.2427557220745" width="45.35451562339486" height="49.26534396527378" fill="#0A0A0A"/><rect x="278.39700271845163" y="804.2427557220745" width="80.24260456446783" height="49.26534396527378" fill="#0A0A0A"/><rect x="372.8593467103035" y="804.2427557220745" width="87.22022235268241" height="49.26534396527378" fill="#0A0A0A"/><rect x="40.09998251533596" y="863.1830252557696" width="31.399280046965668" height="49.26534396527378" fill="#0A0A0A"/><rect x="85.7190019896857" y="863.1830252557696" width="24.42166225875108" height="49.26534396527378" fill="#0A0A0A"/><rect x="124.36040367582083" y="863.1830252557696" width="55.82094230571674" height="49.26534396527378" fill="#0A0A0A"/><rect x="194.40108540892163" y="863.1830252557696" width="66.28736898803864" height="49.26534396527378" fill="#0A0A0A"/><rect x="274.9081938243444" y="863.1830252557696" width="52.33213341160945" height="49.26534396527378" fill="#0A0A0A"/><rect x="341.4600666633379" y="863.1830252557696" width="41.86570672928755" height="49.26534396527378" fill="#0A0A0A"/><rect x="397.5455128200095" y="863.1830252557696" width="80.24260456446783" height="49.26534396527378" fill="#0A0A0A"/></svg>