<svg xmlns="http://www.w3.org/2000/svg" viewBox="80 80 200 200" width="100%" height="100%">
  <path d="M 133.2 80 L 146.8 80 L 173.2 80 L 186.8 80 A 13.200000000000001 13.200000000000001 0 0 1 200 93.2 L 200 106.8 A 13.200000000000001 13.200000000000001 0 0 0 213.2 120 L 226.8 120 A 13.200000000000001 13.200000000000001 0 0 0 240 106.8 L 240 93.2 A 13.200000000000001 13.200000000000001 0 0 1 253.2 80 L 266.8 80 A 13.200000000000001 13.200000000000001 0 0 1 280 93.2 L 280 106.8 A 13.200000000000001 13.200000000000001 0 0 1 266.8 120 L 253.2 120 A 13.200000000000001 13.200000000000001 0 0 0 240 133.2 L 240 146.8 A 13.200000000000001 13.200000000000001 0 0 0 253.2 160 L 266.8 160 A 13.200000000000001 13.200000000000001 0 0 1 280 173.2 L 280 186.8 L 280 213.2 L 280 226.8 A 13.200000000000001 13.200000000000001 0 0 1 266.8 240 L 253.2 240 A 13.200000000000001 13.200000000000001 0 0 0 240 253.2 L 240 266.8 A 13.200000000000001 13.200000000000001 0 0 1 226.8 280 L 213.2 280 L 186.8 280 L 173.2 280 A 13.200000000000001 13.200000000000001 0 0 1 160 266.8 L 160 253.2 A 13.200000000000001 13.200000000000001 0 0 0 146.8 240 L 133.2 240 A 13.200000000000001 13.200000000000001 0 0 0 120 253.2 L 120 266.8 A 13.200000000000001 13.200000000000001 0 0 1 106.8 280 L 93.2 280 A 13.200000000000001 13.200000000000001 0 0 1 80 266.8 L 80 253.2 A 13.200000000000001 13.200000000000001 0 0 1 93.2 240 L 106.8 240 A 13.200000000000001 13.200000000000001 0 0 0 120 226.8 L 120 213.2 A 13.200000000000001 13.200000000000001 0 0 0 106.8 200 L 93.2 200 A 13.200000000000001 13.200000000000001 0 0 1 80 186.8 L 80 173.2 L 80 146.8 L 80 133.2 A 13.200000000000001 13.200000000000001 0 0 1 93.2 120 L 106.8 120 A 13.200000000000001 13.200000000000001 0 0 0 120 106.8 L 120 93.2 A 13.200000000000001 13.200000000000001 0 0 1 133.2 80 Z M 146.8 120 L 133.2 120 A 13.200000000000001 13.200000000000001 0 0 0 120 133.2 L 120 146.8 L 120 173.2 L 120 186.8 A 13.200000000000001 13.200000000000001 0 0 0 133.2 200 L 146.8 200 A 13.200000000000001 13.200000000000001 0 0 0 160 186.8 L 160 173.2 A 13.200000000000001 13.200000000000001 0 0 1 173.2 160 L 186.8 160 A 13.200000000000001 13.200000000000001 0 0 0 200 146.8 L 200 133.2 A 13.200000000000001 13.200000000000001 0 0 0 186.8 120 L 173.2 120 L 146.8 120 Z M 240 186.8 L 240 173.2 A 13.200000000000001 13.200000000000001 0 0 0 226.8 160 L 213.2 160 A 13.200000000000001 13.200000000000001 0 0 0 200 173.2 L 200 186.8 A 13.200000000000001 13.200000000000001 0 0 1 186.8 200 L 173.2 200 A 13.200000000000001 13.200000000000001 0 0 0 160 213.2 L 160 226.8 A 13.200000000000001 13.200000000000001 0 0 0 173.2 240 L 186.8 240 L 213.2 240 L 226.8 240 A 13.200000000000001 13.200000000000001 0 0 0 240 226.8 L 240 213.2 L 240 186.8 Z" fill="#F2F2F7"/>
</svg>